<svg xmlns="http://www.w3.org/2000/svg" viewBox="0 0 640 640"><!--!Font Awesome Free v7.2.0 by @fontawesome - https://fontawesome.com License - https://fontawesome.com/license/free Copyright 2026 Fonticons, Inc.--><path fill="#ffffff" d="M128 160C128 124.7 156.7 96 192 96L448 96C483.3 96 512 124.7 512 160L512 480C512 515.3 483.3 544 448 544L192 544C156.7 544 128 515.3 128 480L128 160zM176 480L464 480C472.8 480 480 472.8 480 464L480 363.3L391.6 274.9C385.3 268.6 375 268.6 368.7 274.9L256.7 386.9L207.5 337.7C204.5 334.7 200.4 333 196.1 333C191.8 333 187.7 334.7 184.7 337.7L160 362.4L160 464C160 472.8 167.2 480 176 480zM256 240C256 213.5 234.5 192 208 192C181.5 192 160 213.5 160 240C160 266.5 181.5 288 208 288C234.5 288 256 266.5 256 240z"/></svg>
